<svg width="513" height="113" viewBox="0 0 513 113" fill="none" xmlns="http://www.w3.org/2000/svg">
<path d="M327.657 50.6745C327.593 35.6269 327.657 20.5793 327.657 5.53174V4.32029H316.435L316.371 5.65926V50.6745C316.371 51.2483 316.435 51.8859 316.371 52.5235C316.053 56.4767 314.395 59.601 310.888 61.7051C308.656 63.0441 306.106 63.873 303.556 64.128C299.794 64.5743 296.032 63.9367 292.652 62.2789C288.125 59.9198 286.149 56.0941 286.149 51.1208V4.32029H274.991V13.6294C275.054 26.254 274.927 38.9425 275.054 51.5671C275.118 59.7285 278.434 66.2959 285.384 70.7591C292.142 75.0949 299.602 76.1151 307.381 74.7123C318.922 72.6082 327.785 64.0642 327.657 50.6745ZM481.13 65.2119V43.2144H506.953V33.1402H481.13V14.2032H512.245V4.32029H469.971V75.2862H512.5V65.2119H481.13ZM381.663 29.7609L426.232 78.538C426.295 78.3467 426.295 78.2192 426.295 78.0279C426.295 72.8632 426.359 67.6986 426.295 62.534C426.231 62.0877 426.04 61.6413 425.721 61.3225C407.613 41.4929 389.505 21.727 371.397 1.89737L370.632 0.877197V75.3499H381.663V29.7609ZM66.365 37.6672L88.6176 70.6954C90.7217 67.5073 92.762 64.4468 94.8024 61.5138C95.2487 61.0037 95.2487 60.1748 94.8024 59.7285L55.972 2.15242C55.7807 1.89737 55.5894 1.64233 55.2706 1.196V75.2862H66.365V37.6672ZM231.825 75.2862V1.13224L191.719 60.6849L198.478 70.7591L220.475 37.986L220.73 38.1136V75.2862H231.825ZM194.843 45.3823C185.152 30.8448 175.396 16.3711 165.641 1.83361C165.449 1.64233 165.258 1.38728 165.067 1.196V75.2224H176.225V38.0498L176.416 37.986L188.595 56.0304C190.826 52.7786 192.867 49.6543 194.907 46.53C195.098 46.1474 195.098 45.7649 194.843 45.3823ZM121.965 75.2862V1.25976C121.709 1.57857 121.646 1.70609 121.518 1.83361C111.763 16.3711 102.007 30.9086 92.2519 45.3823C91.9331 45.7649 91.9331 46.4025 92.3157 46.785L97.4803 54.4363C97.7991 54.9464 98.1179 55.3928 98.5643 56.0304L110.679 37.986L110.934 38.0498V75.3499H121.965V75.2862ZM0.5 4.32029H11.4669V75.2862H0.5V4.32029ZM415.775 42.8319C419.027 46.4025 422.342 49.9731 425.594 53.5437C425.721 53.735 425.913 53.99 425.976 54.2451L426.232 53.99V4.32029H415.137C415.073 4.63909 415.073 5.02166 415.073 5.2767C415.01 17.2637 415.01 29.2508 415.073 41.2378C415.201 41.8755 415.456 42.3855 415.775 42.8319ZM151.677 93.1392C146.194 93.1392 142.177 97.2199 142.177 102.831C142.113 108.633 146.002 112.65 151.55 112.65C157.097 112.65 161.114 108.697 161.114 102.958C161.114 97.1561 157.224 93.1392 151.677 93.1392ZM148.744 109.271C145.875 107.868 144.472 104.234 145.429 100.663C146.066 97.6025 148.872 95.4984 151.932 95.7534C155.439 95.8809 157.926 98.8139 158.053 102.767C158.181 108.187 153.399 111.566 148.744 109.271ZM206.448 93.1392C200.9 93.1392 196.947 97.1561 196.947 102.895C196.947 108.633 200.9 112.65 206.448 112.586C211.995 112.586 215.884 108.506 215.884 102.767C215.884 97.0286 211.995 93.1392 206.448 93.1392ZM212.824 102.767C212.951 108.187 208.105 111.566 203.515 109.271C200.645 107.868 199.243 104.234 200.199 100.663C200.837 97.6025 203.642 95.4984 206.766 95.7534C210.273 95.9447 212.76 98.8777 212.824 102.767ZM245.788 103.66C245.788 102.958 245.151 102.385 244.449 102.448C242.409 102.385 240.368 102.385 238.328 102.448C238.137 102.448 237.946 102.448 237.754 102.576C237.244 102.831 237.053 103.468 237.308 103.979C237.563 104.425 238.073 104.744 238.583 104.744C240.05 104.871 241.58 104.807 242.983 104.807C243.365 106.784 242.345 108.761 240.432 109.526C239.986 109.781 239.54 109.908 239.093 110.036C235.778 110.928 232.398 108.952 231.569 105.636C231.251 104.489 231.123 103.277 231.251 102.066C231.506 99.324 232.781 97.0924 235.523 96.136C238.137 95.1796 241.07 96.0084 242.855 98.1763C243.429 98.8777 243.875 98.5589 244.322 98.1126C244.385 98.1126 244.385 98.0488 244.385 98.0488C244.959 97.4749 244.959 96.6461 244.385 96.0722C243.62 95.2433 242.728 94.5419 241.707 94.0319C235.331 91.4177 227.361 95.052 228.063 104.106C228.381 108.442 230.868 111.502 234.566 112.395C237.754 113.096 240.624 112.65 242.919 110.036C243.11 110.673 243.046 111.375 243.429 111.757C243.939 112.14 244.513 112.331 245.151 112.395C245.278 112.395 245.661 111.949 245.661 111.694V103.979C245.788 103.787 245.852 103.724 245.788 103.66ZM127.894 93.3942C126.938 93.3942 126.492 93.8406 126.492 94.797V107.23L126.3 107.294L125.535 106.21C122.73 102.257 119.988 98.3038 117.182 94.4144C116.609 93.5218 115.461 93.1392 114.441 93.5218C113.484 93.9043 113.548 94.7332 113.548 95.5621V111.184C113.548 112.076 114.122 112.395 114.887 112.395C115.907 112.395 116.29 111.949 116.29 110.801V99.069C116.29 98.7502 116.354 98.4314 116.354 97.8575C116.736 98.3676 116.927 98.6226 117.182 98.9414C120.115 103.086 123.048 107.23 125.918 111.375C126.555 112.267 127.32 112.65 128.277 112.331C129.233 112.012 129.233 111.184 129.233 110.355V94.8608C129.297 93.8406 128.851 93.3942 127.894 93.3942ZM332.503 95.3708V94.7332C332.503 93.8406 332.057 93.3942 331.164 93.3942C330.144 93.3942 329.761 93.7768 329.761 94.797V107.294L329.634 107.358C329.379 107.103 329.187 106.784 328.996 106.529C326.191 102.512 323.385 98.5589 320.516 94.5419C319.942 93.5855 318.794 93.1392 317.71 93.5218C316.69 93.9043 316.818 94.797 316.818 95.6259V111.247C316.818 111.885 317.328 112.395 317.965 112.395C319.049 112.523 319.623 112.076 319.623 110.928V97.73C320.07 98.3038 320.261 98.5589 320.452 98.8777L329.124 111.184C329.889 112.267 330.59 112.586 331.547 112.267C332.631 111.885 332.503 110.928 332.503 110.1V95.3708ZM98.2455 93.3942C97.2253 93.3942 96.8427 93.7131 96.8427 94.8608V101.492H87.0235V94.797C87.0235 93.7131 86.5134 93.3305 85.4933 93.3305C84.4731 93.3305 84.0905 93.6493 84.0905 94.797V110.801C84.0905 112.012 84.6644 112.395 85.8121 112.267C86.8323 112.14 87.0873 111.566 87.0873 110.673V104.106H96.779V110.673C96.779 111.949 97.3528 112.395 98.628 112.204C99.7119 112.012 99.7757 111.247 99.7757 110.418V94.7332C99.7757 93.7768 99.2656 93.3942 98.2455 93.3942ZM41.3707 109.526H31.8704V103.915H39.0753C39.5854 103.851 40.0318 103.66 40.2868 103.213C40.4781 102.767 40.4143 102.257 40.1593 101.874C39.7767 101.556 39.2666 101.364 38.7565 101.428H31.7428V96.1997C34.8671 96.1997 37.9276 96.1997 40.9882 96.136C42.1359 96.136 42.5184 95.7534 42.5822 94.797C42.646 93.8406 42.1359 93.458 40.9882 93.458H30.7227C29.4474 93.458 28.8736 93.9681 28.8736 95.1796V110.482C28.8736 111.694 29.4474 112.204 30.6589 112.204H41.3707C42.2634 112.204 42.8372 111.757 42.8372 110.865C42.901 109.972 42.4547 109.526 41.3707 109.526ZM510.523 109.59H501.214V103.915H508.483C509.376 103.915 509.886 103.468 509.886 102.576C509.886 101.683 509.312 101.364 508.483 101.364H501.214V96.136H510.46C511.607 96.136 512.117 95.4984 511.99 94.5419C511.862 93.5855 511.225 93.458 510.396 93.458H500.385C498.536 93.458 498.154 93.8406 498.154 95.7534V110.865C498.218 111.63 498.855 112.204 499.62 112.204H510.842C510.97 112.204 511.161 112.204 511.289 112.14C511.926 111.949 512.309 111.311 512.117 110.673C511.99 109.717 511.289 109.59 510.523 109.59ZM456.263 93.458C455.115 93.458 454.733 93.7768 454.733 95.052V103.979C454.733 104.68 454.733 105.381 454.605 106.019C454.35 107.613 453.712 108.952 452.118 109.59C448.675 110.992 445.615 109.079 445.424 105.381V95.1158C445.424 93.8406 445.105 93.458 443.957 93.458C442.809 93.458 442.427 93.8406 442.427 95.052V100.472H442.491C442.491 102.448 442.363 104.425 442.491 106.401C442.746 109.717 444.786 112.012 447.91 112.459C449.058 112.65 450.269 112.65 451.417 112.523C454.924 112.204 457.219 110.1 457.474 106.657C457.793 102.831 457.666 98.9414 457.666 95.1158C457.729 93.8406 457.411 93.458 456.263 93.458ZM355.648 102.321C354.947 102.066 354.245 101.811 353.48 101.619C352.396 101.301 351.249 101.109 350.165 100.727C349.208 100.535 348.443 99.6428 348.443 98.6226C348.316 97.5387 348.953 96.5185 349.973 96.136C351.057 95.8172 352.205 95.6259 353.289 95.6896C355.011 95.7534 356.286 96.8373 357.37 98.0488C359.091 97.0924 359.091 95.8172 357.561 94.6057C355.011 92.5654 350.165 92.5654 347.551 94.4782C346.785 94.9883 346.212 95.6896 345.829 96.5823C344.745 99.069 345.893 102.002 348.379 103.086C349.463 103.532 350.611 103.851 351.759 104.17C352.779 104.425 353.799 104.744 354.819 105.19C355.266 105.445 355.648 105.764 355.903 106.274C356.541 107.485 356.031 108.888 354.819 109.526C354.054 109.908 353.289 110.1 352.46 110.163C350.037 110.355 347.742 109.271 346.339 107.294C344.809 108.123 344.554 109.207 345.765 110.355C346.403 110.992 347.104 111.439 347.869 111.757C350.101 112.714 352.651 112.841 355.011 112.14C357.433 111.502 358.964 109.717 359.091 107.422C359.283 105.126 358.135 103.341 355.648 102.321ZM69.5531 106.657C68.5329 108.888 66.62 109.845 64.2609 109.908C59.9889 110.036 56.9922 106.146 57.6935 101.683C58.1398 99.0052 59.4151 96.9011 62.1568 96.136C64.8985 95.3708 67.3214 96.0722 69.1067 98.3676C69.3618 98.5589 69.6806 98.6226 69.9994 98.5589C70.1269 98.4951 70.3182 98.4314 70.4457 98.3676C71.0833 97.9213 71.3384 97.0286 70.892 96.391C70.3819 95.5621 69.6806 94.8607 68.8517 94.3507C66.6838 93.0754 64.0696 92.6929 61.6467 93.3942C56.5458 94.6057 53.6766 99.4515 54.6968 105.19C55.5894 110.1 60.244 113.351 65.1535 112.586C67.4489 112.267 69.553 111.502 70.892 109.526C71.9122 108.123 71.3384 107.039 69.5531 106.657ZM15.0375 93.5218H2.03026C0.882565 93.5218 0.5 93.9681 0.563761 95.052C0.627522 95.9447 1.20137 96.1997 1.9665 96.1997H7.06737V110.737C7.06737 112.14 7.8325 112.65 9.17148 112.331C10.1279 112.076 10.1279 111.311 10.1279 110.61V96.2635H15.0375C16.1214 96.2635 16.6315 95.8172 16.5677 94.8608C16.504 93.9043 15.9301 93.5218 15.0375 93.5218ZM385.297 93.5218H371.716C371.142 93.458 370.568 93.9681 370.568 94.5419C370.441 95.6259 370.887 96.1997 372.035 96.1997H377.072V110.801C377.072 112.076 377.646 112.523 378.921 112.395C380.069 112.267 380.132 111.439 380.132 110.546V96.2635H385.616C386.253 96.1997 386.763 95.6259 386.636 94.9245V94.6695C386.508 93.9681 385.935 93.458 385.297 93.5218ZM428.909 93.5218H415.966C414.818 93.5218 414.436 93.9681 414.499 94.9883C414.563 95.8809 415.137 96.136 415.902 96.136H421.003V110.61C421.003 112.012 421.641 112.523 422.98 112.204C424 112.012 424 111.247 424 110.418V96.0722H428.909C429.993 96.0722 430.503 95.6259 430.44 94.6695C430.376 93.7131 429.866 93.5218 428.909 93.5218ZM484.636 93.5218H470.8C470.163 93.6493 469.78 94.2231 469.844 94.8608C469.844 95.7534 470.29 96.1997 471.31 96.1997H476.348V110.801C476.348 112.14 477.049 112.65 478.388 112.395C479.408 112.14 479.408 111.375 479.408 110.61V96.2635L480.683 96.1997H484.828C485.465 96.136 485.975 95.5621 485.912 94.9245C485.912 94.0956 485.529 93.5218 484.636 93.5218ZM271.93 93.5218C271.165 93.2667 270.336 93.5218 269.954 94.2231C269.507 94.9245 268.997 95.6896 268.551 96.391L264.98 102.066C263.322 99.4515 261.856 97.0924 260.389 94.7332C260.198 94.4144 260.007 94.1594 259.752 93.9043C259.05 93.3305 258.03 93.3305 257.329 93.9043C256.5 94.5419 257.074 95.052 257.456 95.5621C259.305 98.3038 261.155 101.046 263.004 103.851C263.322 104.361 263.514 104.871 263.514 105.445V110.865C263.514 112.012 263.96 112.395 264.98 112.395C266 112.395 266.447 111.949 266.447 110.865C266.447 109.207 266.51 107.549 266.447 105.891C266.383 105.062 266.638 104.234 267.148 103.596C268.997 100.854 270.782 98.1126 272.631 95.3708C273.205 94.4144 272.95 93.8406 271.93 93.5218ZM185.088 109.526H177.118V94.9883C177.118 93.8406 176.735 93.458 175.779 93.3942C174.567 93.3305 174.185 93.7131 174.185 94.9883V110.61C174.185 111.566 174.631 112.267 175.651 112.267H185.407C186.363 112.267 186.682 111.63 186.618 110.801C186.618 109.781 185.917 109.526 185.088 109.526ZM301.26 93.3942C300.112 93.3942 299.73 93.7131 299.73 94.9883V110.801C299.73 111.949 300.112 112.395 301.196 112.395C302.28 112.395 302.727 112.012 302.727 110.801V95.1158C302.727 93.7768 302.408 93.3942 301.26 93.3942ZM400.472 93.3942C399.388 93.3942 399.069 93.7768 399.069 95.052V110.61C399.069 111.885 399.324 112.267 400.472 112.331C401.62 112.395 402.002 111.885 402.002 110.61V94.9883C402.002 93.7768 401.62 93.3942 400.472 93.3942Z" fill="white"/>
</svg>
